<svg xmlns="http://www.w3.org/2000/svg" viewBox="0 0 24 24"><path fill="#E24329" d="M12 21.042L15.19 10.855H8.81L12 21.042z"/><path fill="#FC6D26" d="M12 21.042L8.81 10.855H3.101L12 21.042z"/><path fill="#FCA326" d="M3.101 10.855L1.917 14.497c-.108.331.013.693.303.882L12 21.042 3.101 10.855z"/><path fill="#E24329" d="M3.101 10.855h5.709L6.619 3.891c-.12-.37-.641-.37-.762 0L3.101 10.855z"/><path fill="#FC6D26" d="M12 21.042l3.19-10.187h5.709L12 21.042z"/><path fill="#FCA326" d="M20.899 10.855l1.184 3.642c.108.331-.013.693-.303.882L12 21.042l8.899-10.187z"/><path fill="#E24329" d="M20.899 10.855H15.19l2.191-6.964c.12-.37.641-.37.762 0l2.756 6.964z"/></svg>
